<?xml version="1.0" encoding="utf-8"?>
<!-- Generator: Adobe Illustrator 18.1.1, SVG Export Plug-In . SVG Version: 6.00 Build 0)  -->
<svg version="1.1" id="レイヤー_1" xmlns="http://www.w3.org/2000/svg" xmlns:xlink="http://www.w3.org/1999/xlink" x="0px"
	 y="0px" viewBox="0 0 2500 1670" enable-background="new 0 0 2500 1670" xml:space="preserve">
<g id="XMLID_1_">
	<g>
		<polygon fill="#FFFFFF" points="2422.9,1000.3 2422.9,1318.5 73.8,1318.5 73.8,995.2 755.8,716 596.7,614.4 520.6,590.7 
			200.7,389.3 200.7,325 209,325 887.8,325 1190.8,479 1263.6,479 1569.9,325 2228.3,325 2228.3,394.4 1957.5,563.7 1874.5,590.7 
			1688.4,702.4 		"/>
	</g>
	<g>
		<polygon fill="none" stroke="#231815" stroke-width="2" stroke-miterlimit="10" points="200.7,325 200.7,389.3 520.6,590.7 
			596.7,614.4 755.8,716 73.8,995.2 73.8,1318.5 2422.9,1318.5 2422.9,1000.3 1688.4,702.4 1874.5,590.7 1957.5,563.7 2228.3,394.4 
			2228.3,325 1569.9,325 1263.6,479 1190.8,479 887.8,325 209,325 		"/>
	</g>
</g>
<g>
	<g>
		<g>
			<defs>
				<rect id="SVGID_1_" x="-1543.1" y="-1150.4" width="5571.1" height="3939.2"/>
			</defs>
			<clipPath id="SVGID_2_">
				<use xlink:href="#SVGID_1_"  overflow="visible"/>
			</clipPath>
			<g clip-path="url(#SVGID_2_)">
				<defs>
					<rect id="SVGID_3_" x="-1543.1" y="-1150.4" width="5571.1" height="3939.2"/>
				</defs>
				<clipPath id="SVGID_4_">
					<use xlink:href="#SVGID_3_"  overflow="visible"/>
				</clipPath>
				<path clip-path="url(#SVGID_4_)" fill="#FFFFFF" d="M2175,368.9h-588.8l-313,151.3l10.5,30.8c-14.7-12.5-33.7-20.1-54.5-20.1
					c-20.8,0-39.8,7.6-54.5,20.1l10.5-30.8l-313-151.3H283.4l276.3,171.4h381.7l-279.3,53.3l119.5,70.9l279.1-36.7l63.6,77.2
					l-25.4,19.7l28,63.7l76.5-45.9l2-46.6c7.5,2.2,15.5,3.4,23.7,3.4c8.2,0,16.2-1.2,23.7-3.4l2,46.6l76.5,45.9l28-63.7l-25.4-19.7
					l63.6-77.2l279.1,36.7l119.5-70.9L1517,540.3h381.7L2175,368.9z"/>
				<path clip-path="url(#SVGID_4_)" fill="#FFFFFF" d="M905.6,922.2c-12.4-2.4-24.3-10.1-30.7-21.9c-1.1,2.7-3.7,9-11.1,15
					c-6.9,5.5-14.5,7.6-17.5,8.5l-7.4-8.9c22-4.3,29.6-13.2,29.3-35.7l7.4,0.4c-3.1-4.3-7.4-9.5-13.9-14.5c3.9-4.3,8-9.4,12.1-17.2
					l8.8,3.4c0.3,0.2,2,0.8,2,1.5c0,0.8-0.9,0.9-1.1,1c-1.5,0.4-1.6,0.4-2,0.8c-2.7,3.2-7.6,8.7-8.1,9.3c5,3.9,8.2,7,11.5,10.9
					l-8.2,4.9l2.1,0.1c1.2,0.1,2.3,0.2,2.3,1.1c0,0.5-0.2,0.6-1.1,1.6c-0.6,0.6-0.9,1.5-0.9,3c0,5.2,3.7,10.3,5.1,12.3
					c9.2,12.1,19.3,13.6,27.7,14.7L905.6,922.2z M854.7,882.3c-6.2-8.8-12.1-13.5-15.2-16c5-5.6,9.2-11.7,12.8-18.3l9,3.9
					c0.3,0.1,1.9,0.9,1.9,1.5c0,0.6-0.6,0.8-1,0.9c-1.6,0.5-1.8,0.6-2.3,1.2c-0.6,0.8-1.4,1.6-8.4,9.2c4.2,3.4,7.2,5.9,12.4,12
					L854.7,882.3z M857.8,888.1c-0.5,3.1-2.2,9.8-5,14.6l-9.7-3.2c3.1-5,4.9-10.5,5.5-16.3l9.6,2.1c0.7,0.2,1.7,0.5,1.7,1.3
					C859.9,887.1,859.4,887.6,857.8,888.1 M897.8,880.8c-4.4-5.9-7.4-9.1-14.7-16.2c6.3-6.8,9.3-11.4,12.1-16.7l8.9,3.5
					c0.5,0.2,2.1,0.8,2.1,1.6c0,0.6-0.9,0.8-1.1,0.9c-2,0.5-2.2,0.6-2.6,1c-1.2,1.3-6.6,7.6-7.9,9.1c5,4.2,8.6,8,11.5,11.6
					L897.8,880.8z M904.9,886.6c-0.9,0.3-1.1,0.4-1.4,0.9c-3.7,5.9-5,8-8.4,11.7l-8.9-4.9c3.7-4.1,6.6-8,9.5-14.5l8.7,4.1
					c1.3,0.6,1.5,1,1.5,1.5C906,886.2,905.6,886.4,904.9,886.6"/>
				<path clip-path="url(#SVGID_4_)" fill="#FFFFFF" d="M971.9,874.7v3.2h23.3v7h-23.3v3.2h32.2v7.4h-74.2v-7.4h32.1v-3.2h-23.4v-7
					h23.4v-3.2h-18v-7h18v-4.9l9.7,0.4c0.9,0,2.1,0.2,2.1,0.9c0,0.4-0.3,0.8-0.4,0.9c-0.2,0.2-1.2,0.9-1.4,1v1.5h18v7H971.9z
					 M992.7,862.1H941v10h-9.1v-17.5h29.9v-6.1l9.9,0.4c0.9,0,2.2,0.1,2.2,0.9c0,0.6-0.5,0.9-0.8,1.1c-1.3,1-1.4,1.1-1.4,1.7v1.9
					h29.9v18h-9.1V862.1z M995.7,898.8V922h-9.7v-2.7h-38.3v3.3H938v-23.9H995.7z M986.1,905.8h-38.3v6.7h38.3V905.8z"/>
				<path clip-path="url(#SVGID_4_)" fill="#FFFFFF" d="M1074.7,899.6c-7.4-6.8-15.5-13-24.7-16.8v36.5h-10.5v-67.7l10.6,1.9
					c0.2,0,2.1,0.3,2.1,1.4c0,0.5-2.1,1.9-2.1,2.3v22.1l3.9-6c11.5,5,20.3,11.4,27.5,17.8L1074.7,899.6z M1077.2,870.3
					c-2.4-3.2-5-5.6-7.7-7.5l4.7-3.8c2.7,2,5.3,4.4,7.7,7.5L1077.2,870.3z M1087.2,864.7c-2.3-3-5-5.7-8-7.7l4.4-3.8
					c3.1,2.1,5.6,4.7,8,7.7L1087.2,864.7z"/>
				<path clip-path="url(#SVGID_4_)" fill="#FFFFFF" d="M1164.2,915.1v-3.7h-38.9v3.3h-10.2v-55.9h59.3v56.3H1164.2z M1164.2,868.5
					h-38.9v33.3h38.9V868.5z"/>
				<rect x="1197.9" y="880.2" clip-path="url(#SVGID_4_)" fill="#FFFFFF" width="60.8" height="10.9"/>
				<path clip-path="url(#SVGID_4_)" fill="#FFFFFF" d="M1296.3,872.8c-4.9-4-10.7-7.7-17.5-10.8l5.2-8c5.6,2.5,12.6,6.1,18,10.6
					L1296.3,872.8z M1321.4,896.1c-13.5,10.9-21.6,14.5-32.2,19.1c-0.4,1.2-0.6,2.6-1.3,2.6c-0.5,0-1.3-0.5-1.9-1.6l-6-10.3
					c6.8-1.6,18-4.5,31.7-14.8c13.1-9.8,21.3-21,25.1-26.2l5.9,8.6C1339.3,878,1332.7,886.9,1321.4,896.1"/>
				<path clip-path="url(#SVGID_4_)" fill="#FFFFFF" d="M1434,922.1c-6.1-3.9-9.6-6.9-14-12.2c-3.3,3.8-7.5,8.4-18.3,14.3l-7.4-7.9
					c7.8-3.2,15.1-7.6,20.3-14.2c-3.3-6.1-5-10.3-6.5-17.2c-1.8,3.6-2.6,4.9-3.2,5.7l-8.9-4.4c2-2.1,3.1-3.5,4.3-5.4
					c-0.2,0-1.2-0.2-1.4-0.2c-0.5,0-1.8,2-2.1,2.3c-2.1,2.3-5.6,5.8-7.6,8v5.7l6.1-5.6c2.5,2.4,5.7,5.9,9.7,11.9l-7.8,6
					c-2-3.9-5-8-8-10.9v17.9c0,6.3-11,7.2-14.9,7.4l-3.8-9.8c6,0.4,8.7,0.2,8.7-2.7v-9.2c-0.9,0.5-5.7,3.6-9.8,5.7
					c-0.5,0.2-0.7,0.3-0.9,1.1c-0.3,1-0.3,1.3-0.9,1.3c-0.6,0-1.1-0.9-1.4-1.5l-3.1-8.3c5.3-1.9,9.6-3.7,16.2-7v-5.1l-7.4,3.4
					c-1.2-2.4-3.1-6.1-6.4-10.8l7.5-3.9c2.8,3.9,4.7,7,6.3,10.3v-15.1h-13.3v-8.1h13.3v-14.6l9.2,0.2c0.4,0,2.3,0.1,2.3,1.1
					c0,0.5-0.3,0.8-0.8,1.2c-0.2,0.1-0.8,0.6-0.8,0.9v11.2h13.1v8.1h-13.1v7.4c1.6-1.5,3.3-3.6,4.6-5.5l6.5,5.1
					c0.3,0.3,0.6,0.6,0.9,0.9c5.5-10.2,7.5-19.9,8.8-30.8l8.3,1.4c0.8,0.2,2.7,0.4,2.7,1.4c0,0.6-0.6,0.9-0.9,1.1
					c-1.2,0.6-1.3,0.7-1.4,0.9c-1.6,6.1-2.1,7.8-2.7,9.9h23.9v8.4h-4.8c-1.4,9.2-3.8,19.8-9.7,30.3c5.2,6,9.6,8.9,16,12.1
					L1434,922.1z M1395.3,861.7c-1.3-2.8-2.7-5.2-4.7-8.1l6-3.7c2.1,2.7,3.4,5,5,8.1L1395.3,861.7z M1415.3,871.8
					c0.3,9.5,1.6,15.1,4.7,21.8c3.7-8.2,5-14.3,5.8-21.8H1415.3z"/>
				<path clip-path="url(#SVGID_4_)" fill="#FFFFFF" d="M1502.3,890.1c-0.2,1-0.3,2-0.6,3.1h20.5l3.7,2.8
					c-2.1,6.5-4.6,10.7-9.2,15.9c5.4,2.3,8.9,3.2,14.7,3.7l-6.3,8.5c-5.6-1.4-9.7-2.9-15.2-6.4c-4.5,2.7-7.6,4.1-12.7,5.8l-6.6-6.6
					c7.5-2,10.5-3.7,12.7-4.9c-2.1-2.4-3.7-4.7-5.2-7.5c-3.9,8.3-9.7,14.3-14.3,18.4l-6.8-5c-0.4,1.8-1.5,5-7.6,5h-5.8l-5-9.8
					c2.2,0.1,5.5,0.3,6.7,0.3c1,0,2.6-0.2,2.6-2.5v-17.1c-1.4,0.5-3.6,1.1-4.9,1.7c-0.4,0.2-0.6,0.4-0.8,0.7c-0.9,1.2-1,1.4-1.6,1.4
					c-0.6,0-0.7-0.7-0.9-1.8l-1.3-9.8c5.3-1.2,7.1-1.6,9.4-2.2v-12.4h-8.8v-9h8.8v-13.6l9.5,0.8c0.8,0.1,2.1,0.3,2.1,0.9
					c0,0.3-0.3,0.7-0.9,1.2c-0.9,0.7-1.1,1-1.1,1.4v9.3h5.9v9h-5.9v9.8c3.2-0.9,3.9-1.2,5-1.5v8.5c-1.3,0.5-3.4,1.5-5,2.1v24.6
					c2.5-1.6,5.1-3.3,8.4-7.9c4.6-6.4,5.9-11.8,7.1-16.6h-7.4v-7.6h8.5c0.1-1.5,0.1-3.2,0.1-3.8h-7.4V871h4.4
					c-0.9-1.3-2.7-3.9-5.5-6.6l7-4.4c3,3.1,5.5,7,6.6,8.9l-3,2.1h8.1c-0.8-1.8-2.6-5.8-5.1-9.2l6.3-3.2c-6.9,0.5-10.3,0.7-16.6,0.9
					l-4.5-8.1c5.6,0.1,22,0.3,37.2-3.8l5.8,7.7c0.3,0.4,0.9,1.1,0.9,1.6c0,0.4-0.3,0.7-0.8,0.7c-0.6,0-3.2-0.9-3.8-0.9
					c-0.6,0-4.8,0.7-5.6,0.8c-3,0.4-6.3,0.8-10.5,1.1c2.1,3.2,3.5,6.4,4.7,9.9l-5.3,2.5h6c2.6-4.4,4.4-8,6.6-13.2l8,3.5
					c0.1,0.1,1.7,0.8,1.7,1.5c0,0.7-0.6,0.9-0.8,0.9c-1.2,0.3-1.3,0.4-1.6,0.8c-0.3,0.3-3.4,5.6-4.1,6.6h6.5v7.8h-26
					c-0.1,2.1-0.1,2.6-0.2,3.8h28.7v7.6H1502.3z M1504.4,900.6c1.2,2.1,3.3,4.7,5.2,6.5c1.7-1.5,3.7-4.3,4.7-6.5H1504.4z"/>
				<path clip-path="url(#SVGID_4_)" fill="#FFFFFF" d="M1626.2,882.6c-0.3,0-1.4-0.2-1.5-0.2c-0.8,0-1,0.2-1.7,0.7
					c-2.4,1.9-4.1,3.2-8.1,5.6c3.3,11.3,8,18.1,11.9,21.9l-8.6,6.2c-7.4-9.2-13.3-25.7-14.6-47.7h-0.4c-0.9,1.1-2.3,2.8-5.6,5.7
					c2.5,4.2,5.2,9,7.4,17c1.5,5.5,2.7,12.1,2.7,16.9c0,15-13.2,14.5-18,14.3l-3.2-9.8c2.6,0.4,6.1,0.4,6.2,0.4
					c4.4,0,6.2-1.5,6.2-7.4c0-2.1-0.1-3.3-0.3-4.3c-8.2,7.9-13.1,11.3-23.9,16.5l-6.3-7.9c12.9-4.6,20.3-10.3,28-19
					c-0.3-0.9-0.4-1.3-0.7-2.1c-4.3,4-7,6.1-12.6,9.6l-4.1-5c-0.2,9.8-3.2,13.4-13,15l-4.4-8.5v22.2h-9.2v-71.2h22.2l4.4,4.6
					l-1.9,4.5h8.9c-1.9-4.1-3.5-6.4-5.2-8.7l7.6-3.9c2.1,2.8,4.1,5.6,6.6,10.2l-4.5,2.5h10.8c2.1-4,3.8-8,5.1-12.3l7.4,2.4
					c2.2,0.7,3.2,1.7,3.2,2.4c0,0.7-0.8,0.9-0.9,1c-1,0.3-1.7,0.5-1.9,0.9c-0.3,0.3-2.5,4.8-3,5.7h12.5v8.2h-12.2
					c0.3,5,0.8,7.9,1.4,11.2c2.3-1.6,3.8-2.7,7-5.9l6.1,5.6c0.3,0.2,1.3,1.1,1.3,1.8C1627.2,882.3,1626.6,882.6,1626.2,882.6
					 M1562,876.9l6.8-16.6h-7.2v39.9c4.8,0,8.4-0.2,8.4-6.8C1570,890.2,1568.6,884.8,1562,876.9 M1591.4,879.5
					c-3.8,3.1-6.7,4.8-11.1,6.8l-4.3-7.9c5.8-2.2,11-5.3,15.6-9.4h-15.7v-5.2l-4.7,11.3c5.1,7.4,6.8,11.1,7.7,16.6
					c6.3-3.2,9.6-5.8,13.6-10.2C1592.2,881.1,1591.7,880.1,1591.4,879.5"/>
				<polygon clip-path="url(#SVGID_4_)" fill="#FFFFFF" points="1213.6,629.3 1229.2,617.9 1244.8,629.3 1229.2,668.1 				"/>
				<polygon clip-path="url(#SVGID_4_)" fill="#FFFFFF" points="2303.8,1022.7 2300.8,1030.1 2276.7,1020.3 2279.7,1012.9 				"/>
				<polygon clip-path="url(#SVGID_4_)" fill="#FFFFFF" points="2260.9,1005.4 2258,1012.7 2234.5,1003.1 2237.4,995.8 				"/>
				<polygon clip-path="url(#SVGID_4_)" fill="#FFFFFF" points="2218.6,988.4 2215.8,995.5 2192.7,986.1 2195.5,979 				"/>
				<polygon clip-path="url(#SVGID_4_)" fill="#FFFFFF" points="2176.8,971.5 2174,978.4 2151.5,969.3 2154.2,962.4 				"/>
				<polygon clip-path="url(#SVGID_4_)" fill="#FFFFFF" points="2135.5,954.9 2132.8,961.6 2110.8,952.7 2113.4,946 				"/>
				<polygon clip-path="url(#SVGID_4_)" fill="#FFFFFF" points="2094.7,938.5 2092.1,945.1 2070.6,936.3 2073.2,929.8 				"/>
				<polygon clip-path="url(#SVGID_4_)" fill="#FFFFFF" points="2054.4,922.3 2051.9,928.7 2030.9,920.1 2033.4,913.8 				"/>
				<polygon clip-path="url(#SVGID_4_)" fill="#FFFFFF" points="2014.6,906.3 2012.2,912.5 1991.7,904.2 1994.2,898 				"/>
				<polygon clip-path="url(#SVGID_4_)" fill="#FFFFFF" points="1975.4,890.6 1973,896.5 1953,888.4 1955.4,882.4 				"/>
				<polygon clip-path="url(#SVGID_4_)" fill="#FFFFFF" points="1936.7,875 1934.3,880.8 1914.9,872.9 1917.2,867.1 				"/>
				<polygon clip-path="url(#SVGID_4_)" fill="#FFFFFF" points="1898.5,859.6 1896.2,865.2 1877.3,857.5 1879.5,851.9 				"/>
				<polygon clip-path="url(#SVGID_4_)" fill="#FFFFFF" points="1860.8,844.5 1858.6,849.9 1840.2,842.4 1842.4,837 				"/>
				<polygon clip-path="url(#SVGID_4_)" fill="#FFFFFF" points="1823.6,829.5 1821.5,834.8 1803.6,827.5 1805.7,822.2 				"/>
				<polygon clip-path="url(#SVGID_4_)" fill="#FFFFFF" points="1786.9,814.8 1784.9,819.9 1767.5,812.8 1769.5,807.7 				"/>
				<polygon clip-path="url(#SVGID_4_)" fill="#FFFFFF" points="1750.8,800.3 1748.8,805.1 1731.9,798.3 1733.9,793.4 				"/>
				<polygon clip-path="url(#SVGID_4_)" fill="#FFFFFF" points="1715.1,786 1713.2,790.7 1696.9,784 1698.8,779.3 				"/>
				<polygon clip-path="url(#SVGID_4_)" fill="#FFFFFF" points="1680,771.9 1678.2,776.4 1662.4,769.9 1664.2,765.4 				"/>
				<polygon clip-path="url(#SVGID_4_)" fill="#FFFFFF" points="1645.4,758 1643.7,762.3 1628.3,756 1630.1,751.7 				"/>
				<polygon clip-path="url(#SVGID_4_)" fill="#FFFFFF" points="1611.3,744.3 1609.6,748.4 1594.9,742.4 1596.5,738.2 				"/>
				<polygon clip-path="url(#SVGID_4_)" fill="#FFFFFF" points="1577.8,730.8 1576.1,734.7 1561.9,728.9 1563.5,725 				"/>
				<polygon clip-path="url(#SVGID_4_)" fill="#FFFFFF" points="1544.7,717.5 1543.2,721.3 1529.4,715.7 1530.9,711.9 				"/>
				<polygon clip-path="url(#SVGID_4_)" fill="#FFFFFF" points="1512.2,704.5 1510.7,708 1497.4,702.7 1498.9,699.1 				"/>
				<polygon clip-path="url(#SVGID_4_)" fill="#FFFFFF" points="1480.1,691.6 1478.7,695 1466,689.8 1467.4,686.4 				"/>
				<polygon clip-path="url(#SVGID_4_)" fill="#FFFFFF" points="1448.6,679 1447.3,682.2 1435.1,677.2 1436.4,674 				"/>
				<polygon clip-path="url(#SVGID_4_)" fill="#FFFFFF" points="1417.6,666.5 1416.4,669.6 1404.7,664.8 1405.9,661.8 				"/>
				<polygon clip-path="url(#SVGID_4_)" fill="#FFFFFF" points="1387.2,654.3 1386,657.2 1374.8,652.6 1376,649.8 				"/>
				<polygon clip-path="url(#SVGID_4_)" fill="#FFFFFF" points="1357.2,642.3 1356.1,645 1345.4,640.6 1346.5,638 				"/>
				<polygon clip-path="url(#SVGID_4_)" fill="#FFFFFF" points="1327.8,630.5 1326.7,633 1316.6,628.9 1317.6,626.4 				"/>
				<polygon clip-path="url(#SVGID_4_)" fill="#FFFFFF" points="1298.8,618.9 1297.9,621.2 1288.2,617.3 1289.2,615 				"/>
				<polygon clip-path="url(#SVGID_4_)" fill="#FFFFFF" points="178.7,1012.8 181.7,1020.3 157.6,1030.1 154.6,1022.6 				"/>
				<polygon clip-path="url(#SVGID_4_)" fill="#FFFFFF" points="221,995.8 223.9,1003.1 200.4,1012.7 197.4,1005.4 				"/>
				<polygon clip-path="url(#SVGID_4_)" fill="#FFFFFF" points="262.8,979 265.7,986.1 242.6,995.5 239.8,988.4 				"/>
				<polygon clip-path="url(#SVGID_4_)" fill="#FFFFFF" points="304.2,962.4 306.9,969.3 284.4,978.4 281.6,971.6 				"/>
				<polygon clip-path="url(#SVGID_4_)" fill="#FFFFFF" points="344.9,946 347.6,952.7 325.6,961.6 322.9,954.9 				"/>
				<polygon clip-path="url(#SVGID_4_)" fill="#FFFFFF" points="385.2,929.8 387.8,936.3 366.3,945.1 363.7,938.5 				"/>
				<polygon clip-path="url(#SVGID_4_)" fill="#FFFFFF" points="425,913.8 427.5,920.1 406.5,928.7 404,922.3 				"/>
				<polygon clip-path="url(#SVGID_4_)" fill="#FFFFFF" points="464.2,898 466.7,904.2 446.2,912.5 443.7,906.3 				"/>
				<polygon clip-path="url(#SVGID_4_)" fill="#FFFFFF" points="502.9,882.4 505.4,888.4 485.4,896.5 483,890.6 				"/>
				<polygon clip-path="url(#SVGID_4_)" fill="#FFFFFF" points="541.2,867.1 543.5,872.9 524,880.8 521.7,875 				"/>
				<polygon clip-path="url(#SVGID_4_)" fill="#FFFFFF" points="578.9,851.9 581.1,857.5 562.2,865.2 559.9,859.6 				"/>
				<polygon clip-path="url(#SVGID_4_)" fill="#FFFFFF" points="616,837 618.2,842.4 599.8,849.9 597.6,844.5 				"/>
				<polygon clip-path="url(#SVGID_4_)" fill="#FFFFFF" points="652.7,822.2 654.8,827.5 636.9,834.8 634.8,829.5 				"/>
				<polygon clip-path="url(#SVGID_4_)" fill="#FFFFFF" points="688.9,807.7 690.9,812.8 673.5,819.9 671.5,814.8 				"/>
				<polygon clip-path="url(#SVGID_4_)" fill="#FFFFFF" points="724.5,793.4 726.5,798.3 709.6,805.1 707.6,800.3 				"/>
				<polygon clip-path="url(#SVGID_4_)" fill="#FFFFFF" points="759.6,779.3 761.5,784 745.2,790.7 743.3,786 				"/>
				<polygon clip-path="url(#SVGID_4_)" fill="#FFFFFF" points="794.2,765.4 796,769.9 780.2,776.4 778.4,771.9 				"/>
				<polygon clip-path="url(#SVGID_4_)" fill="#FFFFFF" points="828.3,751.7 830,756 814.7,762.3 813,757.9 				"/>
				<polygon clip-path="url(#SVGID_4_)" fill="#FFFFFF" points="861.9,738.2 863.5,742.4 848.7,748.4 847.1,744.3 				"/>
				<polygon clip-path="url(#SVGID_4_)" fill="#FFFFFF" points="894.9,725 896.5,728.9 882.2,734.7 880.6,730.8 				"/>
				<polygon clip-path="url(#SVGID_4_)" fill="#FFFFFF" points="927.5,711.9 929,715.7 915.2,721.3 913.7,717.5 				"/>
				<polygon clip-path="url(#SVGID_4_)" fill="#FFFFFF" points="959.5,699.1 960.9,702.7 947.7,708 946.2,704.5 				"/>
				<polygon clip-path="url(#SVGID_4_)" fill="#FFFFFF" points="991,686.4 992.4,689.8 979.6,695 978.2,691.6 				"/>
				<polygon clip-path="url(#SVGID_4_)" fill="#FFFFFF" points="1022,674 1023.3,677.2 1011.1,682.2 1009.8,679 				"/>
				<polygon clip-path="url(#SVGID_4_)" fill="#FFFFFF" points="1052.5,661.8 1053.7,664.8 1042,669.6 1040.7,666.5 				"/>
				<polygon clip-path="url(#SVGID_4_)" fill="#FFFFFF" points="1082.4,649.8 1083.6,652.6 1072.4,657.2 1071.2,654.3 				"/>
				<polygon clip-path="url(#SVGID_4_)" fill="#FFFFFF" points="1111.9,638 1113,640.6 1102.3,645 1101.2,642.3 				"/>
				<polygon clip-path="url(#SVGID_4_)" fill="#FFFFFF" points="1140.8,626.4 1141.8,628.9 1131.7,633 1130.6,630.5 				"/>
				<polygon clip-path="url(#SVGID_4_)" fill="#FFFFFF" points="1169.2,615 1170.2,617.3 1160.5,621.2 1159.6,618.9 				"/>
				<path clip-path="url(#SVGID_4_)" fill="#FFFFFF" d="M1197.1,609.8c-3.7,3.4-9.4,3.4-13-0.2c-3.6-3.6-3.6-9.3-0.2-13l-4-4
					c-5.9,5.9-5.9,15.4,0,21.3c5.9,5.9,15.5,5.9,21.3,0L1197.1,609.8z"/>
				<path clip-path="url(#SVGID_4_)" fill="#FFFFFF" d="M1278.5,592.6l-4,4c3.4,3.7,3.4,9.4-0.2,13c-3.6,3.6-9.3,3.6-13,0.2
					l-4.1,4.1c5.9,5.9,15.5,5.9,21.4,0C1284.4,608,1284.4,598.5,1278.5,592.6"/>
				<path clip-path="url(#SVGID_4_)" fill="#FFFFFF" d="M876.1,1168.3c0,58-23.9,105.1-94.1,105.1h-21.3
					c-55.1,0-94.1-47.1-94.1-105.1v-41.8c0-58,39-105.1,94.1-105.1H782c55.1,0,94.1,47,94.1,105.1V1168.3z M807,1136.3
					c0-30.7-12-55.6-28.9-55.6h-13.5c-16.9,0-28.9,24.9-28.9,55.6v22.1c0,30.7,11.9,55.6,28.8,55.6h13.7c21.6,0,28.9-24.9,28.9-55.6
					V1136.3z"/>
				<path clip-path="url(#SVGID_4_)" fill="#FFFFFF" d="M278.5,1021.4h-24v0H142.2v59.3h19.4V1214h-19.4v59.4h79.6h14.4h42.4
					c70.3,0,94.1-47.1,94.1-105.1v-41.8C372.7,1068.5,333.7,1021.4,278.5,1021.4 M303.5,1158.5c0,30.7-10.8,55.6-32.4,55.6h-35v-0.1
					h-14v-133.3h32.4v0h20.1c16.9,0,28.9,24.9,28.9,55.6V1158.5z"/>
				<path clip-path="url(#SVGID_4_)" fill="#FFFFFF" d="M2270.5,1021.4H2260v0h-112.4v59.3h19.4V1214h-19.4v59.4h66.1h27.9h28.8
					c70.2,0,94.1-47.1,94.1-105.1v-41.8C2364.6,1068.5,2325.6,1021.4,2270.5,1021.4 M2295.5,1158.5c0,30.7-10.8,55.6-32.4,55.6
					h-21.4v-0.1h-14v-133.3h32.4v0h6.5c16.9,0,28.9,24.9,28.9,55.6V1158.5z"/>
				<polygon clip-path="url(#SVGID_4_)" fill="#FFFFFF" points="1158,1021.4 1064,1021.4 1064,1080.7 1094,1080.7 1094,1162 
					1029.9,1021.5 917.5,1021.5 917.5,1080.7 936.8,1080.7 936.8,1214 917.5,1214 917.5,1273.6 1011.5,1273.6 1011.5,1214 
					981.5,1214 981.5,1121.5 1050.6,1273.4 1138.6,1273.4 1138.6,1080.7 1158,1080.7 				"/>
				<polygon clip-path="url(#SVGID_4_)" fill="#FFFFFF" points="1361.1,1021.4 1198.9,1021.4 1198.9,1080.7 1217.5,1080.7 
					1217.5,1214.1 1198.9,1214.1 1198.9,1273.4 1361.1,1273.4 1409.3,1273.4 1409.3,1214.1 1409.3,1195.5 1361.1,1195.5 
					1361.1,1214.1 1279.1,1214.1 1279.1,1176.5 1351.3,1176.5 1351.3,1118.3 1279.1,1118.3 1279.1,1080.7 1361.1,1080.7 
					1361.1,1099.3 1409.3,1099.3 1409.3,1080.7 1409.3,1021.4 				"/>
				<path clip-path="url(#SVGID_4_)" fill="#FFFFFF" d="M1660.9,1143.4c8.4-10.3,13.3-23,13.3-37.7v-9c0-41.6-38.6-75.3-86.2-75.3
					h-22.8H1514h-23.2v59.2h19.4v141h-19.4v51.8h46.2h47.3h11.3c47.6,0,86.2-33.7,86.2-75.3v-9
					C1681.8,1170.4,1673.9,1154.9,1660.9,1143.4 M1606.2,1096.7v9c0,8.8-8.2,15.9-18.3,15.9h-17.1v-40.9h17.1
					C1598,1080.7,1606.2,1087.9,1606.2,1096.7 M1613.9,1198.2c0,8.8-8.2,15.9-18.3,15.9h-24.8v-40.9h24.8c10.1,0,18.3,7.1,18.3,15.9
					V1198.2z"/>
				<polygon clip-path="url(#SVGID_4_)" fill="#FFFFFF" points="1818.2,1080.7 1818.2,1021.4 1720.1,1021.4 1720.1,1080.7 
					1738.8,1080.7 1738.8,1213.8 1720.1,1213.8 1720.1,1273.1 1818.2,1273.1 1818.2,1213.8 1799.4,1213.8 1799.4,1080.7 				"/>
				<path clip-path="url(#SVGID_4_)" fill="#FFFFFF" d="M591.7,1170.7c21.2-14.3,34.9-36.6,34.9-61.8v-9.4c0-43.1-40-78.1-89.4-78.1
					h-16.9v-0.1H408v59.3h19.4V1214H408v59.4H518V1214h-30v-27h35.9l30.4,67.6c5.2,11.6,16.7,19,29.3,18.6h75.6
					C620.9,1247.6,599.9,1195.7,591.7,1170.7 M488,1085h49.2h5.5c16.1,0,20.4,9.5,20.4,14.6v9.4c0,5.1-4.3,14.6-20.4,14.6H488V1085z
					"/>
				<path clip-path="url(#SVGID_4_)" fill="#FFFFFF" d="M2054.2,1170.7c21.2-14.3,34.9-36.6,34.9-61.8v-9.4
					c0-43.1-40-78.1-89.4-78.1h-16.9v-0.1h-112.4v59.3h19.4V1214h-19.4v59.4h110.1V1214h-30v-27h35.9l30.4,67.6
					c5.2,11.6,16.7,18.6,29.4,18.6h75.6C2083.5,1247.2,2062.5,1195.7,2054.2,1170.7 M1950.5,1085h49.2h5.5
					c16.1,0,20.4,9.5,20.4,14.6v9.4c0,5.1-4.3,14.6-20.4,14.6h-54.7V1085z"/>
			</g>
		</g>
	</g>
	<g>
		<g>
			<defs>
				<rect id="SVGID_5_" x="-1543.1" y="-1150.4" width="5571.1" height="3939.2"/>
			</defs>
			<clipPath id="SVGID_6_">
				<use xlink:href="#SVGID_5_"  overflow="visible"/>
			</clipPath>
			<g clip-path="url(#SVGID_6_)">
				<defs>
					<rect id="SVGID_7_" x="-1543.1" y="-1150.4" width="5571.1" height="3939.2"/>
				</defs>
				<clipPath id="SVGID_8_">
					<use xlink:href="#SVGID_7_"  overflow="visible"/>
				</clipPath>
				<path clip-path="url(#SVGID_8_)" fill="#008BC7" d="M2175,368.9h-588.8l-313,151.3l10.5,30.8c-14.7-12.5-33.7-20.1-54.5-20.1
					c-20.8,0-39.8,7.6-54.5,20.1l10.5-30.8l-313-151.3H283.4l276.3,171.4h381.7l-279.3,53.3l119.5,70.9l279.1-36.7l63.6,77.2
					l-25.4,19.7l28,63.7l76.5-45.9l2-46.6c7.5,2.2,15.5,3.4,23.7,3.4c8.2,0,16.2-1.2,23.7-3.4l2,46.6l76.5,45.9l28-63.7l-25.4-19.7
					l63.6-77.2l279.1,36.7l119.5-70.9L1517,540.3h381.7L2175,368.9z"/>
				<path clip-path="url(#SVGID_8_)" fill="#004862" d="M905.6,922.2c-12.4-2.4-24.3-10.1-30.7-21.9c-1.1,2.7-3.7,9-11.1,15
					c-6.9,5.5-14.5,7.6-17.5,8.5l-7.4-8.9c22-4.3,29.6-13.2,29.3-35.7l7.4,0.4c-3.1-4.3-7.4-9.5-13.9-14.5c3.9-4.3,8-9.4,12.1-17.2
					l8.8,3.4c0.3,0.2,2,0.8,2,1.5c0,0.8-0.9,0.9-1.1,1c-1.5,0.4-1.6,0.4-2,0.8c-2.7,3.2-7.6,8.7-8.1,9.3c5,3.9,8.2,7,11.5,10.9
					l-8.2,4.9l2.1,0.1c1.2,0.1,2.3,0.2,2.3,1.1c0,0.5-0.2,0.6-1.1,1.6c-0.6,0.6-0.9,1.5-0.9,3c0,5.2,3.7,10.3,5.1,12.3
					c9.2,12.1,19.3,13.6,27.7,14.7L905.6,922.2z M854.7,882.3c-6.2-8.8-12.1-13.5-15.2-16c5-5.6,9.2-11.7,12.8-18.3l9,3.9
					c0.3,0.1,1.9,0.9,1.9,1.5c0,0.6-0.6,0.8-1,0.9c-1.6,0.5-1.8,0.6-2.3,1.2c-0.6,0.8-1.4,1.6-8.4,9.2c4.2,3.4,7.2,5.9,12.4,12
					L854.7,882.3z M857.8,888.1c-0.5,3.1-2.2,9.8-5,14.6l-9.7-3.2c3.1-5,4.9-10.5,5.5-16.3l9.6,2.1c0.7,0.2,1.7,0.5,1.7,1.3
					C859.9,887.1,859.4,887.6,857.8,888.1 M897.8,880.8c-4.4-5.9-7.4-9.1-14.7-16.2c6.3-6.8,9.3-11.4,12.1-16.7l8.9,3.5
					c0.5,0.2,2.1,0.8,2.1,1.6c0,0.6-0.9,0.8-1.1,0.9c-2,0.5-2.2,0.6-2.6,1c-1.2,1.3-6.6,7.6-7.9,9.1c5,4.2,8.6,8,11.5,11.6
					L897.8,880.8z M904.9,886.6c-0.9,0.3-1.1,0.4-1.4,0.9c-3.7,5.9-5,8-8.4,11.7l-8.9-4.9c3.7-4.1,6.6-8,9.5-14.5l8.7,4.1
					c1.3,0.6,1.5,1,1.5,1.5C906,886.2,905.6,886.4,904.9,886.6"/>
				<path clip-path="url(#SVGID_8_)" fill="#004862" d="M971.9,874.7v3.2h23.3v7h-23.3v3.2h32.2v7.4h-74.2v-7.4h32.1v-3.2h-23.4v-7
					h23.4v-3.2h-18v-7h18v-4.9l9.7,0.4c0.9,0,2.1,0.2,2.1,0.9c0,0.4-0.3,0.8-0.4,0.9c-0.2,0.2-1.2,0.9-1.4,1v1.5h18v7H971.9z
					 M992.7,862.1H941v10h-9.1v-17.5h29.9v-6.1l9.9,0.4c0.9,0,2.2,0.1,2.2,0.9c0,0.6-0.5,0.9-0.8,1.1c-1.3,1-1.4,1.1-1.4,1.7v1.9
					h29.9v18h-9.1V862.1z M995.7,898.8V922h-9.7v-2.7h-38.3v3.3H938v-23.9H995.7z M986.1,905.8h-38.3v6.7h38.3V905.8z"/>
				<path clip-path="url(#SVGID_8_)" fill="#004862" d="M1074.7,899.6c-7.4-6.8-15.5-13-24.7-16.8v36.5h-10.5v-67.7l10.6,1.9
					c0.2,0,2.1,0.3,2.1,1.4c0,0.5-2.1,1.9-2.1,2.3v22.1l3.9-6c11.5,5,20.3,11.4,27.5,17.8L1074.7,899.6z M1077.2,870.3
					c-2.4-3.2-5-5.6-7.7-7.5l4.7-3.8c2.7,2,5.3,4.4,7.7,7.5L1077.2,870.3z M1087.2,864.7c-2.3-3-5-5.7-8-7.7l4.4-3.8
					c3.1,2.1,5.6,4.7,8,7.7L1087.2,864.7z"/>
				<path clip-path="url(#SVGID_8_)" fill="#004862" d="M1164.2,915.1v-3.7h-38.9v3.3h-10.2v-55.9h59.3v56.3H1164.2z M1164.2,868.5
					h-38.9v33.3h38.9V868.5z"/>
				<rect x="1197.9" y="880.2" clip-path="url(#SVGID_8_)" fill="#004862" width="60.8" height="10.9"/>
				<path clip-path="url(#SVGID_8_)" fill="#004862" d="M1296.3,872.8c-4.9-4-10.7-7.7-17.5-10.8l5.2-8c5.6,2.5,12.6,6.1,18,10.6
					L1296.3,872.8z M1321.4,896.1c-13.5,10.9-21.6,14.5-32.2,19.1c-0.4,1.2-0.6,2.6-1.3,2.6c-0.5,0-1.3-0.5-1.9-1.6l-6-10.3
					c6.8-1.6,18-4.5,31.7-14.8c13.1-9.8,21.3-21,25.1-26.2l5.9,8.6C1339.3,878,1332.7,886.9,1321.4,896.1"/>
				<path clip-path="url(#SVGID_8_)" fill="#004862" d="M1434,922.1c-6.1-3.9-9.6-6.9-14-12.2c-3.3,3.8-7.5,8.4-18.3,14.3l-7.4-7.9
					c7.8-3.2,15.1-7.6,20.3-14.2c-3.3-6.1-5-10.3-6.5-17.2c-1.8,3.6-2.6,4.9-3.2,5.7l-8.9-4.4c2-2.1,3.1-3.5,4.3-5.4
					c-0.2,0-1.2-0.2-1.4-0.2c-0.5,0-1.8,2-2.1,2.3c-2.1,2.3-5.6,5.8-7.6,8v5.7l6.1-5.6c2.5,2.4,5.7,5.9,9.7,11.9l-7.8,6
					c-2-3.9-5-8-8-10.9v17.9c0,6.3-11,7.2-14.9,7.4l-3.8-9.8c6,0.4,8.7,0.2,8.7-2.7v-9.2c-0.9,0.5-5.7,3.6-9.8,5.7
					c-0.5,0.2-0.7,0.3-0.9,1.1c-0.3,1-0.3,1.3-0.9,1.3c-0.6,0-1.1-0.9-1.4-1.5l-3.1-8.3c5.3-1.9,9.6-3.7,16.2-7v-5.1l-7.4,3.4
					c-1.2-2.4-3.1-6.1-6.4-10.8l7.5-3.9c2.8,3.9,4.7,7,6.3,10.3v-15.1h-13.3v-8.1h13.3v-14.6l9.2,0.2c0.4,0,2.3,0.1,2.3,1.1
					c0,0.5-0.3,0.8-0.8,1.2c-0.2,0.1-0.8,0.6-0.8,0.9v11.2h13.1v8.1h-13.1v7.4c1.6-1.5,3.3-3.6,4.6-5.5l6.5,5.1
					c0.3,0.3,0.6,0.6,0.9,0.9c5.5-10.2,7.5-19.9,8.8-30.8l8.3,1.4c0.8,0.2,2.7,0.4,2.7,1.4c0,0.6-0.6,0.9-0.9,1.1
					c-1.2,0.6-1.3,0.7-1.4,0.9c-1.6,6.1-2.1,7.8-2.7,9.9h23.9v8.4h-4.8c-1.4,9.2-3.8,19.8-9.7,30.3c5.2,6,9.6,8.9,16,12.1
					L1434,922.1z M1395.3,861.7c-1.3-2.8-2.7-5.2-4.7-8.1l6-3.7c2.1,2.7,3.4,5,5,8.1L1395.3,861.7z M1415.3,871.8
					c0.3,9.5,1.6,15.1,4.7,21.8c3.7-8.2,5-14.3,5.8-21.8H1415.3z"/>
				<path clip-path="url(#SVGID_8_)" fill="#004862" d="M1502.3,890.1c-0.2,1-0.3,2-0.6,3.1h20.5l3.7,2.8
					c-2.1,6.5-4.6,10.7-9.2,15.9c5.4,2.3,8.9,3.2,14.7,3.7l-6.3,8.5c-5.6-1.4-9.7-2.9-15.2-6.4c-4.5,2.7-7.6,4.1-12.7,5.8l-6.6-6.6
					c7.5-2,10.5-3.7,12.7-4.9c-2.1-2.4-3.7-4.7-5.2-7.5c-3.9,8.3-9.7,14.3-14.3,18.4l-6.8-5c-0.4,1.8-1.5,5-7.6,5h-5.8l-5-9.8
					c2.2,0.1,5.5,0.3,6.7,0.3c1,0,2.6-0.2,2.6-2.5v-17.1c-1.4,0.5-3.6,1.1-4.9,1.7c-0.4,0.2-0.6,0.4-0.8,0.7c-0.9,1.2-1,1.4-1.6,1.4
					c-0.6,0-0.7-0.7-0.9-1.8l-1.3-9.8c5.3-1.2,7.1-1.6,9.4-2.2v-12.4h-8.8v-9h8.8v-13.6l9.5,0.8c0.8,0.1,2.1,0.3,2.1,0.9
					c0,0.3-0.3,0.7-0.9,1.2c-0.9,0.7-1.1,1-1.1,1.4v9.3h5.9v9h-5.9v9.8c3.2-0.9,3.9-1.2,5-1.5v8.5c-1.3,0.5-3.4,1.5-5,2.1v24.6
					c2.5-1.6,5.1-3.3,8.4-7.9c4.6-6.4,5.9-11.8,7.1-16.6h-7.4v-7.6h8.5c0.1-1.5,0.1-3.2,0.1-3.8h-7.4V871h4.4
					c-0.9-1.3-2.7-3.9-5.5-6.6l7-4.4c3,3.1,5.5,7,6.6,8.9l-3,2.1h8.1c-0.8-1.8-2.6-5.8-5.1-9.2l6.3-3.2c-6.9,0.5-10.3,0.7-16.6,0.9
					l-4.5-8.1c5.6,0.1,22,0.3,37.2-3.8l5.8,7.7c0.3,0.4,0.9,1.1,0.9,1.6c0,0.4-0.3,0.7-0.8,0.7c-0.6,0-3.2-0.9-3.8-0.9
					c-0.6,0-4.8,0.7-5.6,0.8c-3,0.4-6.3,0.8-10.5,1.1c2.1,3.2,3.5,6.4,4.7,9.9l-5.3,2.5h6c2.6-4.4,4.4-8,6.6-13.2l8,3.5
					c0.1,0.1,1.7,0.8,1.7,1.5c0,0.7-0.6,0.9-0.8,0.9c-1.2,0.3-1.3,0.4-1.6,0.8c-0.3,0.3-3.4,5.6-4.1,6.6h6.5v7.8h-26
					c-0.1,2.1-0.1,2.6-0.2,3.8h28.7v7.6H1502.3z M1504.4,900.6c1.2,2.1,3.3,4.7,5.2,6.5c1.7-1.5,3.7-4.3,4.7-6.5H1504.4z"/>
				<path clip-path="url(#SVGID_8_)" fill="#004862" d="M1626.2,882.6c-0.3,0-1.4-0.2-1.5-0.2c-0.8,0-1,0.2-1.7,0.7
					c-2.4,1.9-4.1,3.2-8.1,5.6c3.3,11.3,8,18.1,11.9,21.9l-8.6,6.2c-7.4-9.2-13.3-25.7-14.6-47.7h-0.4c-0.9,1.1-2.3,2.8-5.6,5.7
					c2.5,4.2,5.2,9,7.4,17c1.5,5.5,2.7,12.1,2.7,16.9c0,15-13.2,14.5-18,14.3l-3.2-9.8c2.6,0.4,6.1,0.4,6.2,0.4
					c4.4,0,6.2-1.5,6.2-7.4c0-2.1-0.1-3.3-0.3-4.3c-8.2,7.9-13.1,11.3-23.9,16.5l-6.3-7.9c12.9-4.6,20.3-10.3,28-19
					c-0.3-0.9-0.4-1.3-0.7-2.1c-4.3,4-7,6.1-12.6,9.6l-4.1-5c-0.2,9.8-3.2,13.4-13,15l-4.4-8.5v22.2h-9.2v-71.2h22.2l4.4,4.6
					l-1.9,4.5h8.9c-1.9-4.1-3.5-6.4-5.2-8.7l7.6-3.9c2.1,2.8,4.1,5.6,6.6,10.2l-4.5,2.5h10.8c2.1-4,3.8-8,5.1-12.3l7.4,2.4
					c2.2,0.7,3.2,1.7,3.2,2.4c0,0.7-0.8,0.9-0.9,1c-1,0.3-1.7,0.5-1.9,0.9c-0.3,0.3-2.5,4.8-3,5.7h12.5v8.2h-12.2
					c0.3,5,0.8,7.9,1.4,11.2c2.3-1.6,3.8-2.7,7-5.9l6.1,5.6c0.3,0.2,1.3,1.1,1.3,1.8C1627.2,882.3,1626.6,882.6,1626.2,882.6
					 M1562,876.9l6.8-16.6h-7.2v39.9c4.8,0,8.4-0.2,8.4-6.8C1570,890.2,1568.6,884.8,1562,876.9 M1591.4,879.5
					c-3.8,3.1-6.7,4.8-11.1,6.8l-4.3-7.9c5.8-2.2,11-5.3,15.6-9.4h-15.7v-5.2l-4.7,11.3c5.1,7.4,6.8,11.1,7.7,16.6
					c6.3-3.2,9.6-5.8,13.6-10.2C1592.2,881.1,1591.7,880.1,1591.4,879.5"/>
				<polygon clip-path="url(#SVGID_8_)" fill="#FFFFFF" points="1213.6,629.3 1229.2,617.9 1244.8,629.3 1229.2,668.1 				"/>
				<polygon clip-path="url(#SVGID_8_)" fill="#004862" points="2303.8,1022.7 2300.8,1030.1 2276.7,1020.3 2279.7,1012.9 				"/>
				<polygon clip-path="url(#SVGID_8_)" fill="#004862" points="2260.9,1005.4 2258,1012.7 2234.5,1003.1 2237.4,995.8 				"/>
				<polygon clip-path="url(#SVGID_8_)" fill="#004862" points="2218.6,988.4 2215.8,995.5 2192.7,986.1 2195.5,979 				"/>
				<polygon clip-path="url(#SVGID_8_)" fill="#004862" points="2176.8,971.5 2174,978.4 2151.5,969.3 2154.2,962.4 				"/>
				<polygon clip-path="url(#SVGID_8_)" fill="#004862" points="2135.5,954.9 2132.8,961.6 2110.8,952.7 2113.4,946 				"/>
				<polygon clip-path="url(#SVGID_8_)" fill="#004862" points="2094.7,938.5 2092.1,945.1 2070.6,936.3 2073.2,929.8 				"/>
				<polygon clip-path="url(#SVGID_8_)" fill="#004862" points="2054.4,922.3 2051.9,928.7 2030.9,920.1 2033.4,913.8 				"/>
				<polygon clip-path="url(#SVGID_8_)" fill="#004862" points="2014.6,906.3 2012.2,912.5 1991.7,904.2 1994.2,898 				"/>
				<polygon clip-path="url(#SVGID_8_)" fill="#004862" points="1975.4,890.6 1973,896.5 1953,888.4 1955.4,882.4 				"/>
				<polygon clip-path="url(#SVGID_8_)" fill="#004862" points="1936.7,875 1934.3,880.8 1914.9,872.9 1917.2,867.1 				"/>
				<polygon clip-path="url(#SVGID_8_)" fill="#004862" points="1898.5,859.6 1896.2,865.2 1877.3,857.5 1879.5,851.9 				"/>
				<polygon clip-path="url(#SVGID_8_)" fill="#004862" points="1860.8,844.5 1858.6,849.9 1840.2,842.4 1842.4,837 				"/>
				<polygon clip-path="url(#SVGID_8_)" fill="#004862" points="1823.6,829.5 1821.5,834.8 1803.6,827.5 1805.7,822.2 				"/>
				<polygon clip-path="url(#SVGID_8_)" fill="#004862" points="1786.9,814.8 1784.9,819.9 1767.5,812.8 1769.5,807.7 				"/>
				<polygon clip-path="url(#SVGID_8_)" fill="#004862" points="1750.8,800.3 1748.8,805.1 1731.9,798.3 1733.9,793.4 				"/>
				<polygon clip-path="url(#SVGID_8_)" fill="#004862" points="1715.1,786 1713.2,790.7 1696.9,784 1698.8,779.3 				"/>
				<polygon clip-path="url(#SVGID_8_)" fill="#004862" points="1680,771.9 1678.2,776.4 1662.4,769.9 1664.2,765.4 				"/>
				<polygon clip-path="url(#SVGID_8_)" fill="#004862" points="1645.4,758 1643.7,762.3 1628.3,756 1630.1,751.7 				"/>
				<polygon clip-path="url(#SVGID_8_)" fill="#004862" points="1611.3,744.3 1609.6,748.4 1594.9,742.4 1596.5,738.2 				"/>
				<polygon clip-path="url(#SVGID_8_)" fill="#004862" points="1577.8,730.8 1576.1,734.7 1561.9,728.9 1563.5,725 				"/>
				<polygon clip-path="url(#SVGID_8_)" fill="#004862" points="1544.7,717.5 1543.2,721.3 1529.4,715.7 1530.9,711.9 				"/>
				<polygon clip-path="url(#SVGID_8_)" fill="#004862" points="1512.2,704.5 1510.7,708 1497.4,702.7 1498.9,699.1 				"/>
				<polygon clip-path="url(#SVGID_8_)" fill="#004862" points="1480.1,691.6 1478.7,695 1466,689.8 1467.4,686.4 				"/>
				<polygon clip-path="url(#SVGID_8_)" fill="#004862" points="1448.6,679 1447.3,682.2 1435.1,677.2 1436.4,674 				"/>
				<polygon clip-path="url(#SVGID_8_)" fill="#004862" points="1417.6,666.5 1416.4,669.6 1404.7,664.8 1405.9,661.8 				"/>
				<polygon clip-path="url(#SVGID_8_)" fill="#004862" points="1387.2,654.3 1386,657.2 1374.8,652.6 1376,649.8 				"/>
				<polygon clip-path="url(#SVGID_8_)" fill="#004862" points="1357.2,642.3 1356.1,645 1345.4,640.6 1346.5,638 				"/>
				<polygon clip-path="url(#SVGID_8_)" fill="#004862" points="1327.8,630.5 1326.7,633 1316.6,628.9 1317.6,626.4 				"/>
				<polygon clip-path="url(#SVGID_8_)" fill="#004862" points="1298.8,618.9 1297.9,621.2 1288.2,617.3 1289.2,615 				"/>
				<polygon clip-path="url(#SVGID_8_)" fill="#004862" points="178.7,1012.8 181.7,1020.3 157.6,1030.1 154.6,1022.6 				"/>
				<polygon clip-path="url(#SVGID_8_)" fill="#004862" points="221,995.8 223.9,1003.1 200.4,1012.7 197.4,1005.4 				"/>
				<polygon clip-path="url(#SVGID_8_)" fill="#004862" points="262.8,979 265.7,986.1 242.6,995.5 239.8,988.4 				"/>
				<polygon clip-path="url(#SVGID_8_)" fill="#004862" points="304.2,962.4 306.9,969.3 284.4,978.4 281.6,971.6 				"/>
				<polygon clip-path="url(#SVGID_8_)" fill="#004862" points="344.9,946 347.6,952.7 325.6,961.6 322.9,954.9 				"/>
				<polygon clip-path="url(#SVGID_8_)" fill="#004862" points="385.2,929.8 387.8,936.3 366.3,945.1 363.7,938.5 				"/>
				<polygon clip-path="url(#SVGID_8_)" fill="#004862" points="425,913.8 427.5,920.1 406.5,928.7 404,922.3 				"/>
				<polygon clip-path="url(#SVGID_8_)" fill="#004862" points="464.2,898 466.7,904.2 446.2,912.5 443.7,906.3 				"/>
				<polygon clip-path="url(#SVGID_8_)" fill="#004862" points="502.9,882.4 505.4,888.4 485.4,896.5 483,890.6 				"/>
				<polygon clip-path="url(#SVGID_8_)" fill="#004862" points="541.2,867.1 543.5,872.9 524,880.8 521.7,875 				"/>
				<polygon clip-path="url(#SVGID_8_)" fill="#004862" points="578.9,851.9 581.1,857.5 562.2,865.2 559.9,859.6 				"/>
				<polygon clip-path="url(#SVGID_8_)" fill="#004862" points="616,837 618.2,842.4 599.8,849.9 597.6,844.5 				"/>
				<polygon clip-path="url(#SVGID_8_)" fill="#004862" points="652.7,822.2 654.8,827.5 636.9,834.8 634.8,829.5 				"/>
				<polygon clip-path="url(#SVGID_8_)" fill="#004862" points="688.9,807.7 690.9,812.8 673.5,819.9 671.5,814.8 				"/>
				<polygon clip-path="url(#SVGID_8_)" fill="#004862" points="724.5,793.4 726.5,798.3 709.6,805.1 707.6,800.3 				"/>
				<polygon clip-path="url(#SVGID_8_)" fill="#004862" points="759.6,779.3 761.5,784 745.2,790.7 743.3,786 				"/>
				<polygon clip-path="url(#SVGID_8_)" fill="#004862" points="794.2,765.4 796,769.9 780.2,776.4 778.4,771.9 				"/>
				<polygon clip-path="url(#SVGID_8_)" fill="#004862" points="828.3,751.7 830,756 814.7,762.3 813,757.9 				"/>
				<polygon clip-path="url(#SVGID_8_)" fill="#004862" points="861.9,738.2 863.5,742.4 848.7,748.4 847.1,744.3 				"/>
				<polygon clip-path="url(#SVGID_8_)" fill="#004862" points="894.9,725 896.5,728.9 882.2,734.7 880.6,730.8 				"/>
				<polygon clip-path="url(#SVGID_8_)" fill="#004862" points="927.5,711.9 929,715.7 915.2,721.3 913.7,717.5 				"/>
				<polygon clip-path="url(#SVGID_8_)" fill="#004862" points="959.5,699.1 960.9,702.7 947.7,708 946.2,704.5 				"/>
				<polygon clip-path="url(#SVGID_8_)" fill="#004862" points="991,686.4 992.4,689.8 979.6,695 978.2,691.6 				"/>
				<polygon clip-path="url(#SVGID_8_)" fill="#004862" points="1022,674 1023.3,677.2 1011.1,682.2 1009.8,679 				"/>
				<polygon clip-path="url(#SVGID_8_)" fill="#004862" points="1052.5,661.8 1053.7,664.8 1042,669.6 1040.7,666.5 				"/>
				<polygon clip-path="url(#SVGID_8_)" fill="#004862" points="1082.4,649.8 1083.6,652.6 1072.4,657.2 1071.2,654.3 				"/>
				<polygon clip-path="url(#SVGID_8_)" fill="#004862" points="1111.9,638 1113,640.6 1102.3,645 1101.2,642.3 				"/>
				<polygon clip-path="url(#SVGID_8_)" fill="#004862" points="1140.8,626.4 1141.8,628.9 1131.7,633 1130.6,630.5 				"/>
				<polygon clip-path="url(#SVGID_8_)" fill="#004862" points="1169.2,615 1170.2,617.3 1160.5,621.2 1159.6,618.9 				"/>
				<path clip-path="url(#SVGID_8_)" fill="#FFFFFF" d="M1197.1,609.8c-3.7,3.4-9.4,3.4-13-0.2c-3.6-3.6-3.6-9.3-0.2-13l-4-4
					c-5.9,5.9-5.9,15.4,0,21.3c5.9,5.9,15.5,5.9,21.3,0L1197.1,609.8z"/>
				<path clip-path="url(#SVGID_8_)" fill="#FFFFFF" d="M1278.5,592.6l-4,4c3.4,3.7,3.4,9.4-0.2,13c-3.6,3.6-9.3,3.6-13,0.2
					l-4.1,4.1c5.9,5.9,15.5,5.9,21.4,0C1284.4,608,1284.4,598.5,1278.5,592.6"/>
				<path clip-path="url(#SVGID_8_)" fill="#004862" d="M876.1,1168.3c0,58-23.9,105.1-94.1,105.1h-21.3
					c-55.1,0-94.1-47.1-94.1-105.1v-41.8c0-58,39-105.1,94.1-105.1H782c55.1,0,94.1,47,94.1,105.1V1168.3z M807,1136.3
					c0-30.7-12-55.6-28.9-55.6h-13.5c-16.9,0-28.9,24.9-28.9,55.6v22.1c0,30.7,11.9,55.6,28.8,55.6h13.7c21.6,0,28.9-24.9,28.9-55.6
					V1136.3z"/>
				<path clip-path="url(#SVGID_8_)" fill="#004862" d="M278.5,1021.4h-24v0H142.2v59.3h19.4V1214h-19.4v59.4h79.6h14.4h42.4
					c70.3,0,94.1-47.1,94.1-105.1v-41.8C372.7,1068.5,333.7,1021.4,278.5,1021.4 M303.5,1158.5c0,30.7-10.8,55.6-32.4,55.6h-35v-0.1
					h-14v-133.3h32.4v0h20.1c16.9,0,28.9,24.9,28.9,55.6V1158.5z"/>
				<path clip-path="url(#SVGID_8_)" fill="#004862" d="M2270.5,1021.4H2260v0h-112.4v59.3h19.4V1214h-19.4v59.4h66.1h27.9h28.8
					c70.2,0,94.1-47.1,94.1-105.1v-41.8C2364.6,1068.5,2325.6,1021.4,2270.5,1021.4 M2295.5,1158.5c0,30.7-10.8,55.6-32.4,55.6
					h-21.4v-0.1h-14v-133.3h32.4v0h6.5c16.9,0,28.9,24.9,28.9,55.6V1158.5z"/>
				<polygon clip-path="url(#SVGID_8_)" fill="#004862" points="1158,1021.4 1064,1021.4 1064,1080.7 1094,1080.7 1094,1162 
					1029.9,1021.5 917.5,1021.5 917.5,1080.7 936.8,1080.7 936.8,1214 917.5,1214 917.5,1273.6 1011.5,1273.6 1011.5,1214 
					981.5,1214 981.5,1121.5 1050.6,1273.4 1138.6,1273.4 1138.6,1080.7 1158,1080.7 				"/>
				<polygon clip-path="url(#SVGID_8_)" fill="#004862" points="1361.1,1021.4 1198.9,1021.4 1198.9,1080.7 1217.5,1080.7 
					1217.5,1214.1 1198.9,1214.1 1198.9,1273.4 1361.1,1273.4 1409.3,1273.4 1409.3,1214.1 1409.3,1195.5 1361.1,1195.5 
					1361.1,1214.1 1279.1,1214.1 1279.1,1176.5 1351.3,1176.5 1351.3,1118.3 1279.1,1118.3 1279.1,1080.7 1361.1,1080.7 
					1361.1,1099.3 1409.3,1099.3 1409.3,1080.7 1409.3,1021.4 				"/>
				<path clip-path="url(#SVGID_8_)" fill="#004862" d="M1660.9,1143.4c8.4-10.3,13.3-23,13.3-37.7v-9c0-41.6-38.6-75.3-86.2-75.3
					h-22.8H1514h-23.2v59.2h19.4v141h-19.4v51.8h46.2h47.3h11.3c47.6,0,86.2-33.7,86.2-75.3v-9
					C1681.8,1170.4,1673.9,1154.9,1660.9,1143.4 M1606.2,1096.7v9c0,8.8-8.2,15.9-18.3,15.9h-17.1v-40.9h17.1
					C1598,1080.7,1606.2,1087.9,1606.2,1096.7 M1613.9,1198.2c0,8.8-8.2,15.9-18.3,15.9h-24.8v-40.9h24.8c10.1,0,18.3,7.1,18.3,15.9
					V1198.2z"/>
				<polygon clip-path="url(#SVGID_8_)" fill="#004862" points="1818.2,1080.7 1818.2,1021.4 1720.1,1021.4 1720.1,1080.7 
					1738.8,1080.7 1738.8,1213.8 1720.1,1213.8 1720.1,1273.1 1818.2,1273.1 1818.2,1213.8 1799.4,1213.8 1799.4,1080.7 				"/>
				<path clip-path="url(#SVGID_8_)" fill="#004862" d="M591.7,1170.7c21.2-14.3,34.9-36.6,34.9-61.8v-9.4c0-43.1-40-78.1-89.4-78.1
					h-16.9v-0.1H408v59.3h19.4V1214H408v59.4H518V1214h-30v-27h35.9l30.4,67.6c5.2,11.6,16.7,19,29.3,18.6h75.6
					C620.9,1247.6,599.9,1195.7,591.7,1170.7 M488,1085h49.2h5.5c16.1,0,20.4,9.5,20.4,14.6v9.4c0,5.1-4.3,14.6-20.4,14.6H488V1085z
					"/>
				<path clip-path="url(#SVGID_8_)" fill="#004862" d="M2054.2,1170.7c21.2-14.3,34.9-36.6,34.9-61.8v-9.4
					c0-43.1-40-78.1-89.4-78.1h-16.9v-0.1h-112.4v59.3h19.4V1214h-19.4v59.4h110.1V1214h-30v-27h35.9l30.4,67.6
					c5.2,11.6,16.7,18.6,29.4,18.6h75.6C2083.5,1247.2,2062.5,1195.7,2054.2,1170.7 M1950.5,1085h49.2h5.5
					c16.1,0,20.4,9.5,20.4,14.6v9.4c0,5.1-4.3,14.6-20.4,14.6h-54.7V1085z"/>
			</g>
		</g>
	</g>
	<g>
		<g>
			<defs>
				<rect id="SVGID_9_" x="-1543.1" y="-1150.4" width="5571.1" height="3939.2"/>
			</defs>
			<clipPath id="SVGID_10_">
				<use xlink:href="#SVGID_9_"  overflow="visible"/>
			</clipPath>
			<g clip-path="url(#SVGID_10_)">
				<defs>
					<rect id="SVGID_11_" x="-1543.1" y="-1150.4" width="5571.1" height="3939.2"/>
				</defs>
				<clipPath id="SVGID_12_">
					<use xlink:href="#SVGID_11_"  overflow="visible"/>
				</clipPath>
			</g>
		</g>
	</g>
</g>
</svg>
